<svg viewBox="0 0 400 240" xmlns="http://www.w3.org/2000/svg">
  <defs>
    <linearGradient id="g" x1="0" y1="0" x2="1" y2="1">
      <stop offset="0%" stop-color="#0e0018"/>
      <stop offset="55%" stop-color="#480060"/>
      <stop offset="100%" stop-color="#8800b8"/>
    </linearGradient>
  </defs>
  <rect width="400" height="240" fill="url(#g)"/>
  <polygon points="200,45 215,88 260,88 225,115 240,158 200,132 160,158 175,115 140,88 185,88" fill="rgba(200,100,255,0.22)" stroke="rgba(200,100,255,0.35)" stroke-width="1"/>
  <polygon points="200,65 210,92 238,92 216,108 224,136 200,120 176,136 184,108 162,92 190,92" fill="rgba(220,150,255,0.12)"/>
  <circle cx="100" cy="60"  r="2" fill="rgba(200,100,255,0.5)"/>
  <circle cx="300" cy="50"  r="3" fill="rgba(220,150,255,0.4)"/>
  <circle cx="80"  cy="160" r="2" fill="rgba(180,80,255,0.4)"/>
  <circle cx="320" cy="150" r="2" fill="rgba(200,100,255,0.4)"/>
  <circle cx="150" cy="30"  r="1.5" fill="rgba(220,180,255,0.5)"/>
  <circle cx="350" cy="180" r="1.5" fill="rgba(200,120,255,0.4)"/>
  <rect x="0" y="228" width="400" height="12" fill="rgba(100,0,160,0.5)"/>
  <rect x="0" y="228" width="80" height="12" fill="rgba(200,80,255,0.4)"/>
  <text x="396" y="230" text-anchor="end" font-family="monospace" font-size="72" font-weight="700" fill="rgba(255,255,255,0.05)" letter-spacing="-4">2011</text>
  <text x="16" y="22" font-family="monospace" font-size="9" font-weight="700" fill="rgba(255,255,255,0.4)" letter-spacing="2">QUESTMANIA / MANIAPLANET</text>
  <text x="16" y="195" font-family="monospace" font-size="30" font-weight="700" fill="rgba(210,130,255,0.92)" letter-spacing="2">QUESTMANIA</text>
</svg>
