<svg viewBox="0 0 400 240" xmlns="http://www.w3.org/2000/svg">
  <defs>
    <linearGradient id="g" x1="0" y1="0" x2="1" y2="1">
      <stop offset="0%" stop-color="#001408"/>
      <stop offset="55%" stop-color="#004c22"/>
      <stop offset="100%" stop-color="#009040"/>
    </linearGradient>
  </defs>
  <rect width="400" height="240" fill="url(#g)"/>
  <rect x="60"  y="80"  width="40" height="20" fill="rgba(0,180,80,0.22)" stroke="rgba(0,200,80,0.15)" stroke-width="1"/>
  <rect x="104" y="80"  width="40" height="20" fill="rgba(0,160,70,0.20)" stroke="rgba(0,180,70,0.15)" stroke-width="1"/>
  <rect x="148" y="80"  width="40" height="20" fill="rgba(0,180,80,0.22)" stroke="rgba(0,200,80,0.15)" stroke-width="1"/>
  <rect x="60"  y="104" width="40" height="20" fill="rgba(0,160,70,0.20)" stroke="rgba(0,180,70,0.12)" stroke-width="1"/>
  <rect x="104" y="104" width="40" height="20" fill="rgba(0,200,90,0.25)" stroke="rgba(0,220,90,0.18)" stroke-width="1"/>
  <rect x="148" y="104" width="40" height="20" fill="rgba(0,160,70,0.20)" stroke="rgba(0,180,70,0.12)" stroke-width="1"/>
  <rect x="192" y="104" width="40" height="20" fill="rgba(0,180,80,0.22)" stroke="rgba(0,200,80,0.15)" stroke-width="1"/>
  <rect x="104" y="128" width="40" height="20" fill="rgba(0,180,80,0.22)" stroke="rgba(0,200,80,0.15)" stroke-width="1"/>
  <rect x="148" y="128" width="40" height="20" fill="rgba(0,160,70,0.20)" stroke="rgba(0,180,70,0.12)" stroke-width="1"/>
  <rect x="192" y="128" width="40" height="20" fill="rgba(0,200,90,0.22)" stroke="rgba(0,220,90,0.15)" stroke-width="1"/>
  <rect x="0" y="228" width="400" height="12" fill="rgba(0,100,40,0.5)"/>
  <rect x="0" y="228" width="80" height="12" fill="rgba(0,200,80,0.4)"/>
  <text x="396" y="230" text-anchor="end" font-family="monospace" font-size="72" font-weight="700" fill="rgba(255,255,255,0.05)" letter-spacing="-4">2010</text>
  <text x="16" y="22" font-family="monospace" font-size="9" font-weight="700" fill="rgba(255,255,255,0.4)" letter-spacing="3">TRACKMANIA</text>
  <text x="16" y="185" font-family="monospace" font-size="16" font-weight="700" fill="rgba(255,255,255,0.88)" letter-spacing="1">TRACKMANIA</text>
  <text x="16" y="208" font-family="monospace" font-size="22" font-weight="700" fill="rgba(60,220,110,0.92)" letter-spacing="1">BUILD TO RACE</text>
</svg>
