<svg viewBox="0 0 400 240" xmlns="http://www.w3.org/2000/svg">
  <defs>
    <linearGradient id="g" x1="0" y1="0" x2="1" y2="1">
      <stop offset="0%" stop-color="#0a0a0a"/>
      <stop offset="55%" stop-color="#2a2a3a"/>
      <stop offset="100%" stop-color="#505070"/>
    </linearGradient>
  </defs>
  <rect width="400" height="240" fill="url(#g)"/>
  <rect x="130" y="50" width="140" height="90" rx="10" fill="none" stroke="rgba(200,200,220,0.25)" stroke-width="2.5"/>
  <rect x="140" y="58" width="120" height="60" rx="3" fill="rgba(150,150,180,0.12)"/>
  <rect x="130" y="142" width="140" height="4" fill="rgba(200,200,220,0.15)"/>
  <rect x="130" y="148" width="140" height="40" rx="8" fill="none" stroke="rgba(180,180,200,0.20)" stroke-width="2"/>
  <rect x="148" y="158" width="18" height="6" rx="2" fill="rgba(180,180,200,0.20)"/>
  <rect x="151" y="155" width="6" height="18" rx="2" fill="rgba(180,180,200,0.20)" transform="translate(-3,0)"/>
  <circle cx="242" cy="166" r="3" fill="rgba(180,180,200,0.20)"/>
  <circle cx="252" cy="158" r="3" fill="rgba(180,180,200,0.20)"/>
  <circle cx="262" cy="166" r="3" fill="rgba(180,180,200,0.20)"/>
  <circle cx="252" cy="174" r="3" fill="rgba(180,180,200,0.20)"/>
  <rect x="0" y="228" width="400" height="12" fill="rgba(60,60,100,0.5)"/>
  <rect x="0" y="228" width="80" height="12" fill="rgba(180,180,220,0.3)"/>
  <text x="396" y="230" text-anchor="end" font-family="monospace" font-size="72" font-weight="700" fill="rgba(255,255,255,0.05)" letter-spacing="-4">2008</text>
  <text x="16" y="22" font-family="monospace" font-size="9" font-weight="700" fill="rgba(255,255,255,0.4)" letter-spacing="3">TRACKMANIA</text>
  <text x="16" y="210" font-family="monospace" font-size="26" font-weight="700" fill="rgba(200,200,220,0.85)" letter-spacing="2">TRACKMANIA DS</text>
</svg>
