<svg viewBox="0 0 400 240" xmlns="http://www.w3.org/2000/svg">
  <defs>
    <linearGradient id="g" x1="0" y1="0" x2="1" y2="1">
      <stop offset="0%" stop-color="#120000"/>
      <stop offset="55%" stop-color="#600008"/>
      <stop offset="100%" stop-color="#b80018"/>
    </linearGradient>
  </defs>
  <rect width="400" height="240" fill="url(#g)"/>
  <path d="M120,110 Q120,75 155,75 Q190,75 200,110 Q210,145 245,145 Q280,145 280,110 Q280,75 245,75 Q210,75 200,110 Q190,145 155,145 Q120,145 120,110 Z" stroke="rgba(255,40,40,0.30)" stroke-width="3" fill="none"/>
  <line x1="310" y1="50" x2="310" y2="170" stroke="rgba(255,255,255,0.25)" stroke-width="2"/>
  <polygon points="310,55 360,75 310,95" fill="rgba(255,40,40,0.40)"/>
  <line x1="0" y1="140" x2="400" y2="140" stroke="rgba(255,40,40,0.10)" stroke-width="1"/>
  <line x1="0" y1="148" x2="400" y2="148" stroke="rgba(255,40,40,0.07)" stroke-width="1"/>
  <rect x="0" y="228" width="400" height="12" fill="rgba(140,0,15,0.5)"/>
  <rect x="0" y="228" width="80" height="12" fill="rgba(255,40,40,0.4)"/>
  <text x="396" y="230" text-anchor="end" font-family="monospace" font-size="72" font-weight="700" fill="rgba(255,255,255,0.05)" letter-spacing="-4">2008</text>
  <text x="16" y="22" font-family="monospace" font-size="9" font-weight="700" fill="rgba(255,255,255,0.4)" letter-spacing="3">TRACKMANIA</text>
  <text x="16" y="192" font-family="monospace" font-size="18" font-weight="700" fill="rgba(255,255,255,0.88)" letter-spacing="1">NATIONS FOREVER</text>
  <text x="16" y="215" font-family="monospace" font-size="10" font-weight="700" fill="rgba(255,80,80,0.7)" letter-spacing="3">FREE TO PLAY</text>
</svg>
