<svg viewBox="0 0 400 240" xmlns="http://www.w3.org/2000/svg">
  <defs>
    <linearGradient id="g" x1="0" y1="0" x2="1" y2="1">
      <stop offset="0%" stop-color="#040c20"/>
      <stop offset="55%" stop-color="#0c2858"/>
      <stop offset="100%" stop-color="#184898"/>
    </linearGradient>
  </defs>
  <rect width="400" height="240" fill="url(#g)"/>
  <g opacity="0.20">
    <rect x="260" y="30" width="20" height="20" fill="#fff"/>
    <rect x="300" y="30" width="20" height="20" fill="#fff"/>
    <rect x="340" y="30" width="20" height="20" fill="#fff"/>
    <rect x="280" y="50" width="20" height="20" fill="#fff"/>
    <rect x="320" y="50" width="20" height="20" fill="#fff"/>
    <rect x="360" y="50" width="20" height="20" fill="#fff"/>
    <rect x="260" y="70" width="20" height="20" fill="#fff"/>
    <rect x="300" y="70" width="20" height="20" fill="#fff"/>
    <rect x="340" y="70" width="20" height="20" fill="#fff"/>
    <rect x="280" y="90" width="20" height="20" fill="#fff"/>
    <rect x="320" y="90" width="20" height="20" fill="#fff"/>
    <rect x="360" y="90" width="20" height="20" fill="#fff"/>
  </g>
  <path d="M0,170 Q80,155 160,168 Q240,180 320,162 Q370,152 400,158 L400,240 L0,240 Z" fill="rgba(200,150,60,0.12)"/>
  <line x1="0" y1="110" x2="240" y2="110" stroke="rgba(80,130,220,0.15)" stroke-width="2"/>
  <line x1="0" y1="118" x2="200" y2="118" stroke="rgba(80,130,220,0.10)" stroke-width="1.5"/>
  <line x1="0" y1="125" x2="220" y2="125" stroke="rgba(80,130,220,0.08)" stroke-width="1"/>
  <rect x="0" y="228" width="400" height="12" fill="rgba(15,40,100,0.5)"/>
  <rect x="0" y="228" width="80" height="12" fill="rgba(80,140,255,0.35)"/>
  <text x="396" y="230" text-anchor="end" font-family="monospace" font-size="72" font-weight="700" fill="rgba(255,255,255,0.05)" letter-spacing="-4">2003</text>
  <text x="16" y="22" font-family="monospace" font-size="9" font-weight="700" fill="rgba(255,255,255,0.4)" letter-spacing="3">TRACKMANIA</text>
  <text x="16" y="68" font-family="monospace" font-size="36" font-weight="700" fill="rgba(255,255,255,0.92)" letter-spacing="2">TRACK</text>
  <text x="16" y="100" font-family="monospace" font-size="36" font-weight="700" fill="rgba(255,255,255,0.92)" letter-spacing="2">MANIA</text>
  <text x="16" y="122" font-family="monospace" font-size="10" font-weight="700" fill="rgba(100,160,255,0.6)" letter-spacing="3">ORIGINAL - 2003</text>
</svg>
