<svg viewBox="0 0 400 240" xmlns="http://www.w3.org/2000/svg">
  <defs>
    <linearGradient id="g" x1="0" y1="0" x2="1" y2="1">
      <stop offset="0%" stop-color="#060e20"/>
      <stop offset="55%" stop-color="#143060"/>
      <stop offset="100%" stop-color="#2858a8"/>
    </linearGradient>
  </defs>
  <rect width="400" height="240" fill="url(#g)"/>
  <g opacity="0.18">
    <rect x="20" y="160" width="16" height="16" fill="#fff"/>
    <rect x="52" y="160" width="16" height="16" fill="#fff"/>
    <rect x="84" y="160" width="16" height="16" fill="#fff"/>
    <rect x="36" y="176" width="16" height="16" fill="#fff"/>
    <rect x="68" y="176" width="16" height="16" fill="#fff"/>
    <rect x="100" y="176" width="16" height="16" fill="#fff"/>
    <rect x="20" y="192" width="16" height="16" fill="#fff"/>
    <rect x="52" y="192" width="16" height="16" fill="#fff"/>
    <rect x="84" y="192" width="16" height="16" fill="#fff"/>
  </g>
  <line x1="0" y1="80" x2="400" y2="80" stroke="rgba(80,140,255,0.10)" stroke-width="1"/>
  <line x1="0" y1="90" x2="400" y2="90" stroke="rgba(80,140,255,0.07)" stroke-width="1"/>
  <rect x="0" y="228" width="400" height="12" fill="rgba(20,50,120,0.5)"/>
  <rect x="0" y="228" width="80" height="12" fill="rgba(80,140,255,0.35)"/>
  <text x="396" y="230" text-anchor="end" font-family="monospace" font-size="72" font-weight="700" fill="rgba(255,255,255,0.05)" letter-spacing="-4">2005</text>
  <text x="16" y="22" font-family="monospace" font-size="9" font-weight="700" fill="rgba(255,255,255,0.4)" letter-spacing="3">TRACKMANIA</text>
  <text x="16" y="120" font-family="monospace" font-size="28" font-weight="700" fill="rgba(255,255,255,0.88)" letter-spacing="1">ORIGINAL</text>
  <text x="16" y="148" font-family="monospace" font-size="11" font-weight="700" fill="rgba(100,160,255,0.7)" letter-spacing="3">FREE RELEASE - 2005</text>
</svg>
