<svg viewBox="0 0 400 240" xmlns="http://www.w3.org/2000/svg">
  <defs>
    <linearGradient id="g" x1="0" y1="0" x2="1" y2="1">
      <stop offset="0%" stop-color="#100c00"/>
      <stop offset="55%" stop-color="#604800"/>
      <stop offset="100%" stop-color="#b89000"/>
    </linearGradient>
  </defs>
  <rect width="400" height="240" fill="url(#g)"/>
  <polygon points="200,50 215,95 262,95 225,122 240,168 200,140 160,168 175,122 138,95 185,95" fill="rgba(255,220,0,0.30)" stroke="rgba(255,200,0,0.45)" stroke-width="1.5"/>
  <polygon points="195,68 182,100 196,100 183,132 212,96 196,96" fill="rgba(255,240,80,0.50)"/>
  <circle cx="120" cy="60" r="3" fill="rgba(255,220,0,0.45)"/>
  <circle cx="280" cy="55" r="4" fill="rgba(255,240,80,0.40)"/>
  <circle cx="100" cy="160" r="2" fill="rgba(255,200,0,0.40)"/>
  <circle cx="310" cy="155" r="3" fill="rgba(255,220,0,0.35)"/>
  <rect x="0" y="228" width="400" height="12" fill="rgba(140,90,0,0.5)"/>
  <rect x="0" y="228" width="80" height="12" fill="rgba(255,220,0,0.4)"/>
  <text x="396" y="230" text-anchor="end" font-family="monospace" font-size="72" font-weight="700" fill="rgba(255,255,255,0.05)" letter-spacing="-4">2004</text>
  <text x="16" y="22" font-family="monospace" font-size="9" font-weight="700" fill="rgba(255,255,255,0.4)" letter-spacing="3">TRACKMANIA</text>
  <text x="16" y="195" font-family="monospace" font-size="20" font-weight="700" fill="rgba(255,255,255,0.88)" letter-spacing="1">POWER UP!</text>
  <text x="16" y="216" font-family="monospace" font-size="10" font-weight="700" fill="rgba(255,220,60,0.7)" letter-spacing="3">EXPANSION - 2004</text>
</svg>
