<svg viewBox="0 0 400 240" xmlns="http://www.w3.org/2000/svg">
  <defs>
    <linearGradient id="g" x1="0" y1="0" x2="1" y2="1">
      <stop offset="0%" stop-color="#080014"/>
      <stop offset="55%" stop-color="#3a0870"/>
      <stop offset="100%" stop-color="#7030c0"/>
    </linearGradient>
  </defs>
  <rect width="400" height="240" fill="url(#g)"/>
  <path d="M100,115 Q100,75 142,75 Q184,75 200,115 Q216,155 258,155 Q300,155 300,115 Q300,75 258,75 Q216,75 200,115 Q184,155 142,155 Q100,155 100,115 Z" stroke="rgba(160,80,255,0.30)" stroke-width="3.5" fill="none"/>
  <rect x="0" y="0"   width="400" height="5" fill="rgba(255,220,80,0.18)"/>
  <rect x="0" y="5"   width="400" height="5" fill="rgba(120,80,40,0.18)"/>
  <rect x="0" y="10"  width="400" height="5" fill="rgba(80,200,255,0.15)"/>
  <rect x="0" y="15"  width="400" height="5" fill="rgba(80,200,80,0.15)"/>
  <rect x="0" y="20"  width="400" height="5" fill="rgba(255,100,30,0.18)"/>
  <rect x="0" y="25"  width="400" height="5" fill="rgba(200,200,220,0.15)"/>
  <rect x="0" y="228" width="400" height="12" fill="rgba(80,20,160,0.5)"/>
  <rect x="0" y="228" width="80" height="12" fill="rgba(180,80,255,0.4)"/>
  <text x="396" y="230" text-anchor="end" font-family="monospace" font-size="72" font-weight="700" fill="rgba(255,255,255,0.05)" letter-spacing="-4">2008</text>
  <text x="16" y="52" font-family="monospace" font-size="9" font-weight="700" fill="rgba(255,255,255,0.4)" letter-spacing="3">TRACKMANIA</text>
  <text x="16" y="192" font-family="monospace" font-size="18" font-weight="700" fill="rgba(255,255,255,0.88)" letter-spacing="1">UNITED FOREVER</text>
  <text x="16" y="214" font-family="monospace" font-size="10" font-weight="700" fill="rgba(180,100,255,0.7)" letter-spacing="3">6 ENVIRONMENTS</text>
</svg>
