<svg viewBox="0 0 400 240" xmlns="http://www.w3.org/2000/svg">
  <defs>
    <linearGradient id="g" x1="0" y1="0" x2="1" y2="1">
      <stop offset="0%" stop-color="#001228"/>
      <stop offset="55%" stop-color="#003880"/>
      <stop offset="100%" stop-color="#1060cc"/>
    </linearGradient>
  </defs>
  <rect width="400" height="240" fill="url(#g)"/>
  <path d="M60,240 Q60,80 200,60 Q340,80 340,240" stroke="rgba(255,255,255,0.18)" stroke-width="3" fill="none"/>
  <path d="M90,240 Q90,100 200,82 Q310,100 310,240" stroke="rgba(255,255,255,0.10)" stroke-width="2" fill="none"/>
  <rect x="0" y="210" width="400" height="30" fill="rgba(30,60,120,0.4)"/>
  <rect x="100" y="215" width="200" height="4" fill="rgba(255,255,255,0.2)" rx="2"/>
  <circle cx="40" cy="45" r="6" fill="rgba(255,240,180,0.6)"/>
  <circle cx="360" cy="45" r="6" fill="rgba(255,240,180,0.6)"/>
  <line x1="40" y1="45" x2="200" y2="120" stroke="rgba(255,240,180,0.06)" stroke-width="1"/>
  <line x1="360" y1="45" x2="200" y2="120" stroke="rgba(255,240,180,0.06)" stroke-width="1"/>
  <rect x="0" y="228" width="400" height="12" fill="rgba(20,70,160,0.5)"/>
  <rect x="0" y="228" width="80" height="12" fill="rgba(80,160,255,0.4)"/>
  <text x="396" y="230" text-anchor="end" font-family="monospace" font-size="72" font-weight="700" fill="rgba(255,255,255,0.05)" letter-spacing="-4">2013</text>
  <text x="16" y="22" font-family="monospace" font-size="9" font-weight="700" fill="rgba(255,255,255,0.4)" letter-spacing="2">TRACKMANIA 2 / MANIAPLANET</text>
  <text x="16" y="155" font-family="monospace" font-size="22" font-weight="700" fill="rgba(255,255,255,0.88)" letter-spacing="1">TRACKMANIA 2</text>
  <text x="16" y="190" font-family="monospace" font-size="30" font-weight="700" fill="rgba(100,180,255,0.92)" letter-spacing="2">STADIUM</text>
</svg>
