<svg viewBox="0 0 400 240" xmlns="http://www.w3.org/2000/svg">
  <defs>
    <linearGradient id="g" x1="0" y1="0" x2="1" y2="1">
      <stop offset="0%" stop-color="#001018"/>
      <stop offset="55%" stop-color="#003848"/>
      <stop offset="100%" stop-color="#007a9a"/>
    </linearGradient>
  </defs>
  <rect width="400" height="240" fill="url(#g)"/>
  <path d="M0,170 Q50,150 100,170 Q150,190 200,170 Q250,150 300,170 Q350,190 400,170 L400,240 L0,240 Z" fill="rgba(0,140,180,0.18)"/>
  <path d="M0,188 Q60,170 120,188 Q180,206 240,188 Q300,170 360,188 Q390,198 400,192 L400,240 L0,240 Z" fill="rgba(0,170,210,0.14)"/>
  <path d="M0,210 Q80,195 160,210 Q240,225 320,210 Q370,202 400,210 L400,240 L0,240 Z" fill="rgba(0,200,240,0.10)"/>
  <line x1="340" y1="0" x2="220" y2="160" stroke="rgba(0,200,240,0.08)" stroke-width="12"/>
  <line x1="380" y1="0" x2="260" y2="160" stroke="rgba(0,200,240,0.06)" stroke-width="5"/>
  <rect x="0" y="228" width="400" height="12" fill="rgba(0,120,160,0.5)"/>
  <rect x="0" y="228" width="100" height="12" fill="rgba(0,200,240,0.35)"/>
  <text x="396" y="230" text-anchor="end" font-family="monospace" font-size="72" font-weight="700" fill="rgba(255,255,255,0.05)" letter-spacing="-4">2017</text>
  <text x="16" y="22" font-family="monospace" font-size="9" font-weight="700" fill="rgba(255,255,255,0.4)" letter-spacing="2">TRACKMANIA 2 / MANIAPLANET</text>
  <text x="16" y="152" font-family="monospace" font-size="22" font-weight="700" fill="rgba(255,255,255,0.9)" letter-spacing="1">TRACKMANIA 2</text>
  <text x="16" y="185" font-family="monospace" font-size="30" font-weight="700" fill="rgba(0,210,250,0.9)" letter-spacing="1">LAGOON</text>
</svg>
