<svg viewBox="0 0 400 240" xmlns="http://www.w3.org/2000/svg">
  <defs>
    <linearGradient id="g" x1="0" y1="0" x2="1" y2="1">
      <stop offset="0%" stop-color="#001008"/>
      <stop offset="55%" stop-color="#004020"/>
      <stop offset="100%" stop-color="#008840"/>
    </linearGradient>
  </defs>
  <rect width="400" height="240" fill="url(#g)"/>
  <path d="M0,180 Q60,130 120,160 Q180,190 240,140 Q300,90 360,130 Q380,142 400,135 L400,240 L0,240 Z" fill="rgba(0,80,30,0.5)"/>
  <path d="M0,200 Q80,165 160,185 Q240,205 320,170 Q360,155 400,165 L400,240 L0,240 Z" fill="rgba(0,100,40,0.4)"/>
  <path d="M0,218 Q100,200 200,215 Q300,230 400,210 L400,240 L0,240 Z" fill="rgba(0,120,50,0.3)"/>
  <polygon points="60,160 72,130 84,160" fill="rgba(0,60,20,0.7)"/>
  <polygon points="90,155 105,118 120,155" fill="rgba(0,70,25,0.7)"/>
  <polygon points="200,145 215,108 230,145" fill="rgba(0,60,20,0.6)"/>
  <polygon points="300,140 312,110 324,140" fill="rgba(0,70,25,0.6)"/>
  <rect x="0" y="228" width="400" height="12" fill="rgba(0,100,40,0.5)"/>
  <rect x="0" y="228" width="80" height="12" fill="rgba(0,200,80,0.35)"/>
  <text x="396" y="230" text-anchor="end" font-family="monospace" font-size="72" font-weight="700" fill="rgba(255,255,255,0.05)" letter-spacing="-4">2013</text>
  <text x="16" y="22" font-family="monospace" font-size="9" font-weight="700" fill="rgba(255,255,255,0.4)" letter-spacing="2">TRACKMANIA 2 / MANIAPLANET</text>
  <text x="16" y="108" font-family="monospace" font-size="22" font-weight="700" fill="rgba(255,255,255,0.88)" letter-spacing="1">TRACKMANIA 2</text>
  <text x="16" y="140" font-family="monospace" font-size="34" font-weight="700" fill="rgba(50,220,100,0.92)" letter-spacing="2">VALLEY</text>
</svg>
