<svg viewBox="0 0 400 240" xmlns="http://www.w3.org/2000/svg">
  <defs>
    <linearGradient id="g" x1="0" y1="0" x2="1" y2="1">
      <stop offset="0%" stop-color="#100800"/>
      <stop offset="55%" stop-color="#602800"/>
      <stop offset="100%" stop-color="#b05010"/>
    </linearGradient>
  </defs>
  <rect width="400" height="240" fill="url(#g)"/>
  <path d="M0,60 L120,40 L180,70 L260,35 L340,55 L400,42 L400,80 L340,92 L260,75 L180,108 L120,78 L0,98 Z" fill="rgba(180,90,20,0.22)"/>
  <path d="M0,100 L100,82 L180,112 L260,78 L360,100 L400,88 L400,130 L360,140 L260,118 L180,152 L100,122 L0,140 Z" fill="rgba(160,70,15,0.20)"/>
  <path d="M0,145 L80,128 L200,158 L320,130 L400,145 L400,180 L320,168 L200,196 L80,166 L0,182 Z" fill="rgba(140,60,10,0.18)"/>
  <polygon points="0,0 60,0 60,240 0,240" fill="rgba(100,40,5,0.30)"/>
  <polygon points="340,0 400,0 400,240 340,240" fill="rgba(100,40,5,0.30)"/>
  <rect x="0" y="228" width="400" height="12" fill="rgba(120,50,10,0.5)"/>
  <rect x="0" y="228" width="80" height="12" fill="rgba(220,120,40,0.4)"/>
  <text x="396" y="230" text-anchor="end" font-family="monospace" font-size="72" font-weight="700" fill="rgba(255,255,255,0.05)" letter-spacing="-4">2011</text>
  <text x="76" y="22" font-family="monospace" font-size="9" font-weight="700" fill="rgba(255,255,255,0.4)" letter-spacing="2">TRACKMANIA 2 / MANIAPLANET</text>
  <text x="76" y="155" font-family="monospace" font-size="22" font-weight="700" fill="rgba(255,255,255,0.88)" letter-spacing="1">TRACKMANIA 2</text>
  <text x="76" y="190" font-family="monospace" font-size="32" font-weight="700" fill="rgba(230,140,60,0.92)" letter-spacing="2">CANYON</text>
</svg>
